<svg width="95" height="19" viewBox="0 0 95 19" fill="none" xmlns="http://www.w3.org/2000/svg">
  <path d="M0.804688 18V0.726562H4.37891V7.3125H11.1289V0.726562H14.7148V18H11.1289V10.2891H4.37891V18H0.804688ZM23.6328 15.6445C24.6094 15.6445 25.3594 15.2969 25.8828 14.6016C26.4062 13.9062 26.668 12.918 26.668 11.6367C26.668 10.3555 26.4062 9.37109 25.8828 8.68359C25.3594 7.98828 24.6094 7.64062 23.6328 7.64062C22.6562 7.64062 21.9023 7.98828 21.3711 8.68359C20.8477 9.37109 20.5859 10.3555 20.5859 11.6367C20.5859 12.918 20.8477 13.9062 21.3711 14.6016C21.9023 15.2969 22.6562 15.6445 23.6328 15.6445ZM30.1719 11.6367C30.1719 13.5117 29.6328 15.1172 28.5547 16.4531C27.4766 17.7812 25.8398 18.4453 23.6445 18.4453C21.4492 18.4453 19.8125 17.7812 18.7344 16.4531C17.6562 15.1172 17.1172 13.5117 17.1172 11.6367C17.1172 9.79297 17.6562 8.19531 18.7344 6.84375C19.8125 5.49219 21.4492 4.81641 23.6445 4.81641C25.8398 4.81641 27.4766 5.49219 28.5547 6.84375C29.6328 8.19531 30.1719 9.79297 30.1719 11.6367ZM39.6523 4.92188C40.9727 4.92188 42.0508 5.26953 42.8867 5.96484C43.7305 6.65234 44.1523 7.79688 44.1523 9.39844V18H40.7305V10.2305C40.7305 9.55859 40.6406 9.04297 40.4609 8.68359C40.1328 8.02734 39.5078 7.69922 38.5859 7.69922C37.4531 7.69922 36.6758 8.17969 36.2539 9.14062C36.0352 9.64844 35.9258 10.2969 35.9258 11.0859V18H32.5977V5.25H35.8203V7.11328C36.25 6.45703 36.6562 5.98438 37.0391 5.69531C37.7266 5.17969 38.5977 4.92188 39.6523 4.92188ZM52.2852 7.64062C51.5117 7.64062 50.9102 7.88281 50.4805 8.36719C50.0586 8.85156 49.793 9.50781 49.6836 10.3359H54.875C54.8203 9.45312 54.5508 8.78516 54.0664 8.33203C53.5898 7.87109 52.9961 7.64062 52.2852 7.64062ZM52.2852 4.88672C53.3477 4.88672 54.3047 5.08594 55.1562 5.48438C56.0078 5.88281 56.7109 6.51172 57.2656 7.37109C57.7656 8.12891 58.0898 9.00781 58.2383 10.0078C58.3242 10.5938 58.3594 11.4375 58.3438 12.5391H49.6016C49.6484 13.8203 50.0508 14.7188 50.8086 15.2344C51.2695 15.5547 51.8242 15.7148 52.4727 15.7148C53.1602 15.7148 53.7188 15.5195 54.1484 15.1289C54.3828 14.918 54.5898 14.625 54.7695 14.25H58.1797C58.0938 15.0078 57.6992 15.7773 56.9961 16.5586C55.9023 17.8008 54.3711 18.4219 52.4023 18.4219C50.7773 18.4219 49.3438 17.8984 48.1016 16.8516C46.8594 15.8047 46.2383 14.1016 46.2383 11.7422C46.2383 9.53125 46.7969 7.83594 47.9141 6.65625C49.0391 5.47656 50.4961 4.88672 52.2852 4.88672ZM63.207 13.9219C63.2773 14.5156 63.4297 14.9375 63.6641 15.1875C64.0781 15.6328 64.8438 15.8555 65.9609 15.8555C66.6172 15.8555 67.1367 15.7578 67.5195 15.5625C67.9102 15.3672 68.1055 15.0742 68.1055 14.6836C68.1055 14.3086 67.9492 14.0234 67.6367 13.8281C67.3242 13.6328 66.1641 13.2969 64.1562 12.8203C62.7109 12.4609 61.6914 12.0117 61.0977 11.4727C60.5039 10.9414 60.207 10.1758 60.207 9.17578C60.207 7.99609 60.668 6.98438 61.5898 6.14062C62.5195 5.28906 63.8242 4.86328 65.5039 4.86328C67.0977 4.86328 68.3945 5.18359 69.3945 5.82422C70.4023 6.45703 70.9805 7.55469 71.1289 9.11719H67.7891C67.7422 8.6875 67.6211 8.34766 67.4258 8.09766C67.0586 7.64453 66.4336 7.41797 65.5508 7.41797C64.8242 7.41797 64.3047 7.53125 63.9922 7.75781C63.6875 7.98438 63.5352 8.25 63.5352 8.55469C63.5352 8.9375 63.6992 9.21484 64.0273 9.38672C64.3555 9.56641 65.5156 9.875 67.5078 10.3125C68.8359 10.625 69.832 11.0977 70.4961 11.7305C71.1523 12.3711 71.4805 13.1719 71.4805 14.1328C71.4805 15.3984 71.0078 16.4336 70.0625 17.2383C69.125 18.0352 67.6719 18.4336 65.7031 18.4336C63.6953 18.4336 62.2109 18.0117 61.25 17.168C60.2969 16.3164 59.8203 15.2344 59.8203 13.9219H63.207ZM72.6523 7.72266V5.34375H74.4336V1.78125H77.7383V5.34375H79.8125V7.72266H77.7383V14.4727C77.7383 14.9961 77.8047 15.3242 77.9375 15.457C78.0703 15.582 78.4766 15.6445 79.1562 15.6445C79.2578 15.6445 79.3633 15.6445 79.4727 15.6445C79.5898 15.6367 79.7031 15.6289 79.8125 15.6211V18.1172L78.2305 18.1758C76.6523 18.2305 75.5742 17.957 74.9961 17.3555C74.6211 16.9727 74.4336 16.3828 74.4336 15.5859V7.72266H72.6523ZM87.6875 15.6445C88.6641 15.6445 89.4141 15.2969 89.9375 14.6016C90.4609 13.9062 90.7227 12.918 90.7227 11.6367C90.7227 10.3555 90.4609 9.37109 89.9375 8.68359C89.4141 7.98828 88.6641 7.64062 87.6875 7.64062C86.7109 7.64062 85.957 7.98828 85.4258 8.68359C84.9023 9.37109 84.6406 10.3555 84.6406 11.6367C84.6406 12.918 84.9023 13.9062 85.4258 14.6016C85.957 15.2969 86.7109 15.6445 87.6875 15.6445ZM94.2266 11.6367C94.2266 13.5117 93.6875 15.1172 92.6094 16.4531C91.5312 17.7812 89.8945 18.4453 87.6992 18.4453C85.5039 18.4453 83.8672 17.7812 82.7891 16.4531C81.7109 15.1172 81.1719 13.5117 81.1719 11.6367C81.1719 9.79297 81.7109 8.19531 82.7891 6.84375C83.8672 5.49219 85.5039 4.81641 87.6992 4.81641C89.8945 4.81641 91.5312 5.49219 92.6094 6.84375C93.6875 8.19531 94.2266 9.79297 94.2266 11.6367Z" fill="black"/>
</svg>
